{
	"asset":{
		"generator":"Khronos glTF Blender I/O v3.6.28",
		"version":"2.0"
	},
	"scene":0,
	"scenes":[
		{
			"name":"Scene",
			"nodes":[
				8,
				9,
				10
			]
		}
	],
	"nodes":[
		{
			"mesh":0,
			"name":"Luigi_hat_09 - Default_0",
			"scale":[
				0.0011956710368394852,
				0.0011956710368394852,
				0.0011956710368394852
			],
			"translation":[
				0,
				-0.14000000059604645,
				0.07999999821186066
			]
		},
		{
			"mesh":1,
			"name":"nose",
			"rotation":[
				7.053249362343195e-08,
				-2.1083676661091608e-14,
				-1.6001306182844566e-14,
				1
			],
			"translation":[
				-1.5708755402423034e-15,
				-4.3872967481206615e-09,
				6.696259990945919e-09
			]
		},
		{
			"children":[
				1
			],
			"name":"NOSE_TIP",
			"rotation":[
				0,
				-5.459468699331709e-15,
				-1.0541838330545804e-14,
				1
			],
			"translation":[
				2.47202152081627e-08,
				-0.004629991948604584,
				0.07586580514907837
			]
		},
		{
			"mesh":2,
			"name":"forehead_right",
			"rotation":[
				0.14623042941093445,
				0.2724289894104004,
				0.041930895298719406,
				0.9500741958618164
			],
			"scale":[
				1.000000238418579,
				1.0000001192092896,
				1
			],
			"translation":[
				-8.913877636018697e-09,
				2.60770320892334e-08,
				9.313225746154785e-09
			]
		},
		{
			"children":[
				3
			],
			"name":"FOREHEAD_RIGHT",
			"rotation":[
				-0.14623039960861206,
				-0.2724289894104004,
				-0.0419309101998806,
				0.9500741958618164
			],
			"scale":[
				1,
				0.9999999403953552,
				1
			],
			"translation":[
				-0.037089988589286804,
				0.06964000314474106,
				0.03981000930070877
			]
		},
		{
			"mesh":3,
			"name":"forehead_left",
			"rotation":[
				0.14623042941093445,
				-0.27242907881736755,
				-0.041930947452783585,
				0.9500741362571716
			],
			"scale":[
				1.0000001192092896,
				1.0000001192092896,
				1.000000238418579
			],
			"translation":[
				-1.1868102944845305e-08,
				4.880130290985107e-07,
				-3.4458935260772705e-07
			]
		},
		{
			"children":[
				5
			],
			"name":"FOREHEAD_LEFT",
			"rotation":[
				-0.14623035490512848,
				0.27242904901504517,
				0.04193096607923508,
				0.9500741958618164
			],
			"scale":[
				0.9999999403953552,
				1,
				1
			],
			"translation":[
				0.037090010941028595,
				0.06964010000228882,
				0.03980998694896698
			]
		},
		{
			"children":[
				2,
				4,
				6
			],
			"name":"root",
			"rotation":[
				-7.053249362343195e-08,
				2.6543146207456264e-14,
				2.6543146207456264e-14,
				1
			]
		},
		{
			"children":[
				0,
				7
			],
			"name":"asset"
		},
		{
			"mesh":4,
			"name":"Luigi_hat_15 - Default_0"
		},
		{
			"mesh":5,
			"name":"Luigi_hat_21 - Default_0"
		}
	],
	"materials":[
		{
			"doubleSided":true,
			"name":"09_-_Default",
			"pbrMetallicRoughness":{
				"baseColorFactor":[
					0.10588199645280838,
					0.5450980067253113,
					0.003921569790691137,
					1
				],
				"roughnessFactor":0.8929713368415833
			}
		},
		{
			"alphaMode":"BLEND",
			"doubleSided":true,
			"name":"nose_meshSG",
			"pbrMetallicRoughness":{
				"metallicFactor":0,
				"roughnessFactor":0.5
			}
		},
		{
			"alphaMode":"BLEND",
			"doubleSided":true,
			"name":"earLeft_meshSG.001",
			"pbrMetallicRoughness":{
				"metallicFactor":0,
				"roughnessFactor":0.5
			}
		},
		{
			"alphaMode":"BLEND",
			"doubleSided":true,
			"name":"earLeft_meshSG",
			"pbrMetallicRoughness":{
				"metallicFactor":0,
				"roughnessFactor":0.5
			}
		},
		{
			"doubleSided":true,
			"name":"15_-_Default",
			"pbrMetallicRoughness":{
				"baseColorFactor":[
					0.9058820009231567,
					0.8862749934196472,
					0.8823530077934265,
					1
				],
				"metallicFactor":0.753357470035553,
				"roughnessFactor":0.8929713368415833
			}
		},
		{
			"doubleSided":true,
			"name":"21_-_Default",
			"normalTexture":{
				"index":0
			},
			"pbrMetallicRoughness":{
				"baseColorTexture":{
					"index":1
				},
				"roughnessFactor":0.8929713368415833
			}
		}
	],
	"meshes":[
		{
			"name":"Luigi_hat_09 - Default_0",
			"primitives":[
				{
					"attributes":{
						"POSITION":0,
						"NORMAL":1,
						"TEXCOORD_0":2
					},
					"indices":3,
					"material":0
				}
			]
		},
		{
			"name":"nose",
			"primitives":[
				{
					"attributes":{
						"POSITION":4,
						"NORMAL":5,
						"TEXCOORD_0":6
					},
					"indices":7,
					"material":1
				}
			]
		},
		{
			"name":"forehead_right",
			"primitives":[
				{
					"attributes":{
						"POSITION":8,
						"NORMAL":9,
						"TEXCOORD_0":10
					},
					"indices":11,
					"material":2
				}
			]
		},
		{
			"name":"forehead_left",
			"primitives":[
				{
					"attributes":{
						"POSITION":12,
						"NORMAL":13,
						"TEXCOORD_0":14
					},
					"indices":11,
					"material":3
				}
			]
		},
		{
			"name":"Luigi_hat_15 - Default_0",
			"primitives":[
				{
					"attributes":{
						"POSITION":15,
						"NORMAL":16,
						"TEXCOORD_0":17
					},
					"indices":18,
					"material":4
				}
			]
		},
		{
			"name":"Luigi_hat_21 - Default_0",
			"primitives":[
				{
					"attributes":{
						"POSITION":19,
						"NORMAL":20,
						"TEXCOORD_0":21
					},
					"indices":22,
					"material":5
				}
			]
		}
	],
	"textures":[
		{
			"sampler":0,
			"source":0
		},
		{
			"sampler":0,
			"source":1
		}
	],
	"images":[
		{
			"bufferView":23,
			"mimeType":"image/png",
			"name":"Image_1"
		},
		{
			"bufferView":24,
			"mimeType":"image/png",
			"name":"Image_0"
		}
	],
	"skins":[
		{
			"inverseBindMatrices":23,
			"joints":[
				7,
				2,
				4,
				6
			],
			"name":"asset"
		}
	],
	"accessors":[
		{
			"bufferView":0,
			"componentType":5126,
			"count":1826,
			"max":[
				78.746337890625,
				311.61431884765625,
				107.2722396850586
			],
			"min":[
				-80.06388854980469,
				176.04244995117188,
				-132.26141357421875
			],
			"type":"VEC3"
		},
		{
			"bufferView":1,
			"componentType":5126,
			"count":1826,
			"type":"VEC3"
		},
		{
			"bufferView":2,
			"componentType":5126,
			"count":1826,
			"type":"VEC2"
		},
		{
			"bufferView":3,
			"componentType":5123,
			"count":9096,
			"type":"SCALAR"
		},
		{
			"bufferView":4,
			"componentType":5126,
			"count":525,
			"max":[
				0.03900200128555298,
				0.02986600063741207,
				0.022533999755978584
			],
			"min":[
				-0.03900200128555298,
				-0.02625899948179722,
				-0.0072029996663331985
			],
			"type":"VEC3"
		},
		{
			"bufferView":5,
			"componentType":5126,
			"count":525,
			"type":"VEC3"
		},
		{
			"bufferView":6,
			"componentType":5126,
			"count":525,
			"type":"VEC2"
		},
		{
			"bufferView":7,
			"componentType":5123,
			"count":2820,
			"type":"SCALAR"
		},
		{
			"bufferView":8,
			"componentType":5126,
			"count":4,
			"max":[
				0.033237114548683167,
				0.10650693625211716,
				-0.03972995653748512
			],
			"min":[
				-0.07905673235654831,
				-0.0057872324250638485,
				-0.0397307351231575
			],
			"type":"VEC3"
		},
		{
			"bufferView":9,
			"componentType":5126,
			"count":4,
			"type":"VEC3"
		},
		{
			"bufferView":10,
			"componentType":5126,
			"count":4,
			"type":"VEC2"
		},
		{
			"bufferView":11,
			"componentType":5123,
			"count":6,
			"type":"SCALAR"
		},
		{
			"bufferView":12,
			"componentType":5126,
			"count":4,
			"max":[
				0.07905732840299606,
				0.10650639235973358,
				-0.039759717881679535
			],
			"min":[
				-0.033237017691135406,
				-0.0057868193835020065,
				-0.03975997865200043
			],
			"type":"VEC3"
		},
		{
			"bufferView":13,
			"componentType":5126,
			"count":4,
			"type":"VEC3"
		},
		{
			"bufferView":14,
			"componentType":5126,
			"count":4,
			"type":"VEC2"
		},
		{
			"bufferView":15,
			"componentType":5126,
			"count":535,
			"max":[
				26.87375259399414,
				295.23944091796875,
				39.8624153137207
			],
			"min":[
				-28.18905258178711,
				242.3880157470703,
				11.997125625610352
			],
			"type":"VEC3"
		},
		{
			"bufferView":16,
			"componentType":5126,
			"count":535,
			"type":"VEC3"
		},
		{
			"bufferView":17,
			"componentType":5126,
			"count":535,
			"type":"VEC2"
		},
		{
			"bufferView":18,
			"componentType":5123,
			"count":2400,
			"type":"SCALAR"
		},
		{
			"bufferView":19,
			"componentType":5126,
			"count":86,
			"max":[
				19.483142852783203,
				288.71575927734375,
				39.033233642578125
			],
			"min":[
				-20.798439025878906,
				249.828125,
				25.682373046875
			],
			"type":"VEC3"
		},
		{
			"bufferView":20,
			"componentType":5126,
			"count":86,
			"type":"VEC3"
		},
		{
			"bufferView":21,
			"componentType":5126,
			"count":86,
			"type":"VEC2"
		},
		{
			"bufferView":22,
			"componentType":5123,
			"count":360,
			"type":"SCALAR"
		},
		{
			"bufferView":25,
			"componentType":5126,
			"count":4,
			"type":"MAT4"
		}
	],
	"bufferViews":[
		{
			"buffer":0,
			"byteLength":21912,
			"byteOffset":0,
			"target":34962
		},
		{
			"buffer":0,
			"byteLength":21912,
			"byteOffset":21912,
			"target":34962
		},
		{
			"buffer":0,
			"byteLength":14608,
			"byteOffset":43824,
			"target":34962
		},
		{
			"buffer":0,
			"byteLength":18192,
			"byteOffset":58432,
			"target":34963
		},
		{
			"buffer":0,
			"byteLength":6300,
			"byteOffset":76624,
			"target":34962
		},
		{
			"buffer":0,
			"byteLength":6300,
			"byteOffset":82924,
			"target":34962
		},
		{
			"buffer":0,
			"byteLength":4200,
			"byteOffset":89224,
			"target":34962
		},
		{
			"buffer":0,
			"byteLength":5640,
			"byteOffset":93424,
			"target":34963
		},
		{
			"buffer":0,
			"byteLength":48,
			"byteOffset":99064,
			"target":34962
		},
		{
			"buffer":0,
			"byteLength":48,
			"byteOffset":99112,
			"target":34962
		},
		{
			"buffer":0,
			"byteLength":32,
			"byteOffset":99160,
			"target":34962
		},
		{
			"buffer":0,
			"byteLength":12,
			"byteOffset":99192,
			"target":34963
		},
		{
			"buffer":0,
			"byteLength":48,
			"byteOffset":99204,
			"target":34962
		},
		{
			"buffer":0,
			"byteLength":48,
			"byteOffset":99252,
			"target":34962
		},
		{
			"buffer":0,
			"byteLength":32,
			"byteOffset":99300,
			"target":34962
		},
		{
			"buffer":0,
			"byteLength":6420,
			"byteOffset":99332,
			"target":34962
		},
		{
			"buffer":0,
			"byteLength":6420,
			"byteOffset":105752,
			"target":34962
		},
		{
			"buffer":0,
			"byteLength":4280,
			"byteOffset":112172,
			"target":34962
		},
		{
			"buffer":0,
			"byteLength":4800,
			"byteOffset":116452,
			"target":34963
		},
		{
			"buffer":0,
			"byteLength":1032,
			"byteOffset":121252,
			"target":34962
		},
		{
			"buffer":0,
			"byteLength":1032,
			"byteOffset":122284,
			"target":34962
		},
		{
			"buffer":0,
			"byteLength":688,
			"byteOffset":123316,
			"target":34962
		},
		{
			"buffer":0,
			"byteLength":720,
			"byteOffset":124004,
			"target":34963
		},
		{
			"buffer":0,
			"byteLength":7844,
			"byteOffset":124724
		},
		{
			"buffer":0,
			"byteLength":515,
			"byteOffset":132568
		},
		{
			"buffer":0,
			"byteLength":256,
			"byteOffset":133084
		}
	],
	"samplers":[
		{
			"magFilter":9729,
			"minFilter":9987
		}
	],
	"buffers":[
		{
			"byteLength":133340,
			"uri":"data:application/octet-stream;base64,"
		}
	]
}
