{
  "accessors": [
    {
      "bufferView": 2,
      "componentType": 5126,
      "count": 1824,
      "max": [
        78.746337890625,
        311.61431884765625,
        107.2722396850586
      ],
      "min": [
        -80.06388854980469,
        176.04244995117188,
        -132.26141357421875
      ],
      "type": "VEC3"
    },
    {
      "bufferView": 2,
      "byteOffset": 21888,
      "componentType": 5126,
      "count": 1824,
      "max": [
        0.9999364614486694,
        1.0,
        0.9999514818191528
      ],
      "min": [
        -0.9999365210533142,
        -0.9996603727340698,
        -0.9990187883377075
      ],
      "type": "VEC3"
    },
    {
      "bufferView": 1,
      "componentType": 5126,
      "count": 1824,
      "max": [
        0.8200646638870239,
        0.8763414025306702
      ],
      "min": [
        -0.39681586623191833,
        -0.416695773601532
      ],
      "type": "VEC2"
    },
    {
      "bufferView": 0,
      "componentType": 5125,
      "count": 9096,
      "type": "SCALAR"
    },
    {
      "bufferView": 2,
      "byteOffset": 43776,
      "componentType": 5126,
      "count": 535,
      "max": [
        26.87375259399414,
        295.23944091796875,
        39.8624153137207
      ],
      "min": [
        -28.18905258178711,
        242.3880157470703,
        11.997125625610352
      ],
      "type": "VEC3"
    },
    {
      "bufferView": 2,
      "byteOffset": 50196,
      "componentType": 5126,
      "count": 535,
      "max": [
        0.9999132752418518,
        0.9999920129776001,
        0.9954624772071838
      ],
      "min": [
        -0.9999132752418518,
        -0.9857636094093323,
        -0.17612677812576294
      ],
      "type": "VEC3"
    },
    {
      "bufferView": 1,
      "byteOffset": 14592,
      "componentType": 5126,
      "count": 535,
      "max": [
        1.0,
        1.1579463481903076
      ],
      "min": [
        0.00047684088349342346,
        0.015076844953000546
      ],
      "type": "VEC2"
    },
    {
      "bufferView": 0,
      "byteOffset": 36384,
      "componentType": 5125,
      "count": 2400,
      "type": "SCALAR"
    },
    {
      "bufferView": 2,
      "byteOffset": 56616,
      "componentType": 5126,
      "count": 86,
      "max": [
        19.483142852783203,
        288.71575927734375,
        39.033233642578125
      ],
      "min": [
        -20.798439025878906,
        249.828125,
        25.682373046875
      ],
      "type": "VEC3"
    },
    {
      "bufferView": 2,
      "byteOffset": 57648,
      "componentType": 5126,
      "count": 86,
      "max": [
        0.09999394416809082,
        0.41502001881599426,
        0.9736090898513794
      ],
      "min": [
        -0.09999113529920578,
        0.22822251915931702,
        0.9098122715950012
      ],
      "type": "VEC3"
    },
    {
      "bufferView": 3,
      "componentType": 5126,
      "count": 86,
      "max": [
        0.9999833106994629,
        0.061698202043771744,
        0.10133720189332962,
        1.0
      ],
      "min": [
        0.9947708249092102,
        -0.06097951903939247,
        -0.10134007781744003,
        1.0
      ],
      "type": "VEC4"
    },
    {
      "bufferView": 1,
      "byteOffset": 18872,
      "componentType": 5126,
      "count": 86,
      "max": [
        0.8777164816856384,
        0.8310128450393677
      ],
      "min": [
        0.21314340829849243,
        0.1636316031217575
      ],
      "type": "VEC2"
    },
    {
      "bufferView": 0,
      "byteOffset": 45984,
      "componentType": 5125,
      "count": 360,
      "type": "SCALAR"
    }
  ],
  "asset": {
    "extras": {
      "author": "Anthony Yanez (https://sketchfab.com/paulyanez)",
      "license": "CC-BY-4.0 (http://creativecommons.org/licenses/by/4.0/)",
      "source": "https://sketchfab.com/3d-models/luigis-cap-super-mario-bros-a86b16aae3664609854537ef95ddf310",
      "title": "Luigi's Cap (Super Mario Bros)"
    },
    "generator": "Sketchfab-12.66.0",
    "version": "2.0"
  },
  "bufferViews": [
    {
      "buffer": 0,
      "byteLength": 47424,
      "name": "floatBufferViews",
      "target": 34963
    },
    {
      "buffer": 0,
      "byteLength": 19560,
      "byteOffset": 47424,
      "byteStride": 8,
      "name": "floatBufferViews",
      "target": 34962
    },
    {
      "buffer": 0,
      "byteLength": 58680,
      "byteOffset": 66984,
      "byteStride": 12,
      "name": "floatBufferViews",
      "target": 34962
    },
    {
      "buffer": 0,
      "byteLength": 1376,
      "byteOffset": 125664,
      "byteStride": 16,
      "name": "floatBufferViews",
      "target": 34962
    }
  ],
  "buffers": [
    {
      "byteLength": 127040,
      "uri": "scene.bin"
    }
  ],
  "images": [
    {
      "uri": "textures/21_-_Default_baseColor.png"
    },
    {
      "uri": "textures/21_-_Default_normal.png"
    }
  ],
  "materials": [
    {
      "doubleSided": true,
      "name": "09_-_Default",
      "pbrMetallicRoughness": {
        "baseColorFactor": [
          0.105882,
          0.545098,
          0.00392157,
          1.0
        ],
        "roughnessFactor": 0.8929713596
      }
    },
    {
      "doubleSided": true,
      "name": "15_-_Default",
      "pbrMetallicRoughness": {
        "baseColorFactor": [
          0.905882,
          0.886275,
          0.882353,
          1.0
        ],
        "metallicFactor": 0.7533574422,
        "roughnessFactor": 0.8929713596
      }
    },
    {
      "doubleSided": true,
      "name": "21_-_Default",
      "normalTexture": {
        "index": 1
      },
      "pbrMetallicRoughness": {
        "baseColorTexture": {
          "index": 0
        },
        "roughnessFactor": 0.8929713596
      }
    }
  ],
  "meshes": [
    {
      "name": "Luigi_hat_09 - Default_0",
      "primitives": [
        {
          "attributes": {
            "NORMAL": 1,
            "POSITION": 0,
            "TEXCOORD_0": 2
          },
          "indices": 3,
          "material": 0,
          "mode": 4
        }
      ]
    },
    {
      "name": "Luigi_hat_15 - Default_0",
      "primitives": [
        {
          "attributes": {
            "NORMAL": 5,
            "POSITION": 4,
            "TEXCOORD_0": 6
          },
          "indices": 7,
          "material": 1,
          "mode": 4
        }
      ]
    },
    {
      "name": "Luigi_hat_21 - Default_0",
      "primitives": [
        {
          "attributes": {
            "NORMAL": 9,
            "POSITION": 8,
            "TANGENT": 10,
            "TEXCOORD_0": 11
          },
          "indices": 12,
          "material": 2,
          "mode": 4
        }
      ]
    }
  ],
  "nodes": [
    {
      "children": [
        1
      ],
      "matrix": [
        1.0,
        0.0,
        0.0,
        0.0,
        0.0,
        2.220446049250313e-16,
        -1.0,
        0.0,
        0.0,
        1.0,
        2.220446049250313e-16,
        0.0,
        0.0,
        0.0,
        0.0,
        1.0
      ],
      "name": "Sketchfab_model"
    },
    {
      "children": [
        2
      ],
      "matrix": [
        1.0,
        0.0,
        0.0,
        0.0,
        0.0,
        0.0,
        1.0,
        0.0,
        0.0,
        -1.0,
        0.0,
        0.0,
        0.0,
        0.0,
        0.0,
        1.0
      ],
      "name": "Luigi Hat.FBX"
    },
    {
      "children": [
        3
      ],
      "name": "RootNode"
    },
    {
      "children": [
        4
      ],
      "matrix": [
        0.9564758539199829,
        0.0,
        0.0,
        0.0,
        0.0,
        0.9564758539199701,
        1.5582969594252502e-07,
        0.0,
        0.0,
        -1.5582969594252502e-07,
        0.9564758539199701,
        0.0,
        -8.022067070007324,
        52.462982177734375,
        12.529120445251465,
        1.0
      ],
      "name": "Luigi_hat"
    },
    {
      "children": [
        5,
        6,
        7
      ],
      "matrix": [
        1.0,
        0.0,
        -0.0,
        0.0,
        0.0,
        1.0,
        0.0,
        0.0,
        0.0,
        0.0,
        1.0,
        0.0,
        0.6587729454040527,
        -243.82839965820313,
        11.522917747497559,
        1.0
      ],
      "name": "Object_4"
    },
    {
      "mesh": 0,
      "name": "Luigi_hat_09 - Default_0"
    },
    {
      "mesh": 1,
      "name": "Luigi_hat_15 - Default_0"
    },
    {
      "mesh": 2,
      "name": "Luigi_hat_21 - Default_0"
    }
  ],
  "samplers": [
    {
      "magFilter": 9729,
      "minFilter": 9987,
      "wrapS": 10497,
      "wrapT": 10497
    }
  ],
  "scene": 0,
  "scenes": [
    {
      "name": "Sketchfab_Scene",
      "nodes": [
        0
      ]
    }
  ],
  "textures": [
    {
      "sampler": 0,
      "source": 0
    },
    {
      "sampler": 0,
      "source": 1
    }
  ]
}
